<svg width="900" height="480" xmlns="http://www.w3.org/2000/svg" xmlns:xlink="http://www.w3.org/1999/xlink" overflow="hidden"><path d="M63.56 70.51 248.97 70.51 248.97 164.51 63.56 164.51Z" stroke="#000000" stroke-width="3" stroke-linecap="round" stroke-linejoin="round" fill="none"/><text fill="#000000" font-family="Times New Roman" font-weight="700" font-size="12" opacity="1" x="114.03" y="122.41">VENTILATION</text><path d="M640.17 70.51 825.57 70.51 825.57 164.51 640.17 164.51Z" stroke="#000000" stroke-width="3" stroke-linecap="round" stroke-linejoin="round" fill="none"/><text fill="#000000" font-family="Times New Roman" font-weight="700" font-size="12" opacity="1" x="655.53" y="122.41">CONTROL OF BREATHING</text><path d="M357.3 196.55 542.7 196.55 542.7 290.56 357.3 290.56Z" stroke="#000000" stroke-width="3" stroke-linecap="round" stroke-linejoin="round" fill="none"/><text fill="#000000" font-family="Times New Roman" font-weight="700" font-size="12" opacity="1" x="399.15" y="240.96">TRANSPORT AND</text><text fill="#000000" font-family="Times New Roman" font-weight="700" font-size="12" opacity="1" x="406.94" y="255.96">METABOLISM</text><path d="M63.56 318.44 248.97 318.44 248.97 412.45 63.56 412.45Z" stroke="#000000" stroke-width="3" stroke-linecap="round" stroke-linejoin="round" fill="none"/><text fill="#000000" font-family="Times New Roman" font-weight="700" font-size="12" opacity="1" x="113.37" y="370.35">CIRCULATION</text><path d="M640.17 318.44 825.57 318.44 825.57 412.45 640.17 412.45Z" stroke="#000000" stroke-width="3" stroke-linecap="round" stroke-linejoin="round" fill="none"/><text fill="#000000" font-family="Times New Roman" font-weight="700" font-size="12" opacity="1" x="648.86" y="370.35">CONTROL OF CIRCULATION</text><path d="M615.8 141.01 623.27 141.01M623.27 144.6 623.27 137.42 640.17 141.01Z" stroke="#000000" stroke-width="1" stroke-linecap="round" stroke-linejoin="round" fill="#000000"/><path d="M542.7 243.56 591.43 243.56 591.43 141.01 640.17 141.01" stroke="#000000" stroke-width="1" stroke-linecap="round" stroke-linejoin="round" fill="none"/><text fill="#000000" font-family="Times New Roman" font-size="14" opacity="1" x="603.02" y="239.72">partial pressures</text><text fill="#000000" font-family="Times New Roman" font-size="14" opacity="1" x="603.02" y="255.72">and ph</text><path d="M615.8 341.94 623.27 341.94M623.27 345.53 623.27 338.35 640.17 341.94Z" stroke="#000000" stroke-width="1" stroke-linecap="round" stroke-linejoin="round" fill="#000000"/><path d="M542.7 243.56 591.43 243.56 591.43 341.94 640.17 341.94" stroke="#000000" stroke-width="1" stroke-linecap="round" stroke-linejoin="round" fill="none"/><path d="M330.21 220.06 340.4 220.06M340.4 223.65 340.4 216.46 357.3 220.06Z" stroke="#000000" stroke-width="1" stroke-linecap="round" stroke-linejoin="round" fill="#000000"/><path d="M248.97 141.01 303.13 141.01 303.13 220.06 357.3 220.06" stroke="#000000" stroke-width="1" stroke-linecap="round" stroke-linejoin="round" fill="none"/><text fill="#000000" font-family="Times New Roman" font-size="14" opacity="1" x="260.14" y="113.74">gas volumes and</text><text fill="#000000" font-family="Times New Roman" font-size="14" opacity="1" x="260.14" y="129.74">flow rates</text><path d="M330.21 267.06 340.4 267.06M340.4 270.65 340.4 263.47 357.3 267.06Z" stroke="#000000" stroke-width="1" stroke-linecap="round" stroke-linejoin="round" fill="#000000"/><path d="M248.97 341.94 303.13 341.94 303.13 267.06 357.3 267.06" stroke="#000000" stroke-width="1" stroke-linecap="round" stroke-linejoin="round" fill="none"/><text fill="#000000" font-family="Times New Roman" font-size="14" opacity="1" x="255.28" y="360.66">blood volumes and</text><text fill="#000000" font-family="Times New Roman" font-size="14" opacity="1" x="255.28" y="376.66">flow rates</text><path d="M607.57 388.94 623.27 388.94M623.27 392.54 623.27 385.35 640.17 388.94Z" stroke="#000000" stroke-width="1" stroke-linecap="round" stroke-linejoin="round" fill="#000000"/><path d="M248.97 388.94 640.17 388.94" stroke="#000000" stroke-width="1" stroke-linecap="round" stroke-linejoin="round" fill="none"/><text fill="#000000" font-family="Times New Roman" font-size="14" opacity="1" x="383.07" y="408.99">arterial blood pressure</text><path d="M607.57 94.01 623.27 94.01M623.27 97.6 623.27 90.42 640.17 94.01Z" stroke="#000000" stroke-width="1" stroke-linecap="round" stroke-linejoin="round" fill="#000000"/><path d="M248.97 94.01 640.17 94.01" stroke="#000000" stroke-width="1" stroke-linecap="round" stroke-linejoin="round" fill="none"/><text fill="#000000" font-family="Times New Roman" font-size="14" opacity="1" x="412.23" y="85.88">lung volume</text><path d="M43.56 365.44 46.66 365.44M46.66 369.04 46.66 361.85 63.56 365.44Z" stroke="#000000" stroke-width="1" stroke-linecap="round" stroke-linejoin="round" fill="#000000"/><path d="M825.57 365.44 860.17 365.44 860.17 443.49 23.56 443.49 23.56 365.44 63.56 365.44" stroke="#000000" stroke-width="1" stroke-linecap="round" stroke-linejoin="round" fill="none"/><text fill="#000000" font-family="Times New Roman" font-size="14" opacity="1" x="363.86" y="462.4">circulatory control effectors</text><path d="M43.56 117.51 46.66 117.51M46.66 121.1 46.66 113.92 63.56 117.51Z" stroke="#000000" stroke-width="1" stroke-linecap="round" stroke-linejoin="round" fill="#000000"/><path d="M825.57 117.51 865.57 117.51 865.57 30.51 23.56 30.51 23.56 117.51 63.56 117.51" stroke="#000000" stroke-width="1" stroke-linecap="round" stroke-linejoin="round" fill="none"/><text fill="#000000" font-family="Times New Roman" font-size="14" opacity="1" x="370.83" y="20.94">ventilatory control effector</text><path d="M156.26 285.84 156.26 301.54M152.67 301.54 159.86 301.54 156.26 318.44Z" stroke="#000000" stroke-width="1" stroke-linecap="round" stroke-linejoin="round" fill="#000000"/><path d="M156.26 164.51 156.26 318.44" stroke="#000000" stroke-width="1" stroke-linecap="round" stroke-linejoin="round" fill="none"/><text fill="#000000" font-family="Times New Roman" font-size="14" opacity="1" x="164.92" y="235.16">intrathoracic</text><text fill="#000000" font-family="Times New Roman" font-size="14" opacity="1" x="164.92" y="251.16">pressure</text></svg>