<svg width="829" height="784" xmlns="http://www.w3.org/2000/svg" xmlns:xlink="http://www.w3.org/1999/xlink" overflow="hidden"><path d="M181.21 150.67C303.17 202.94 444.31 180.53 544.1 93.06" stroke="#0066FF" stroke-width="2" stroke-linecap="round" stroke-linejoin="round" stroke-dasharray="2 4 2 2" fill="none"/><path d="M471.15 39.98C487.09 43.33 502.73 47.97 517.91 53.87" stroke="#0066FF" stroke-width="2" stroke-linecap="round" stroke-linejoin="round" fill="none"/><path d="M283.46 138.28C339.73 126.98 387.88 90.85 414.46 39.98" stroke="#0066FF" stroke-width="2" stroke-linecap="round" stroke-linejoin="round" fill="none"/><path d="M379.04 39.98C408.64 95.36 476.49 117.77 533.25 90.9" stroke="#0066FF" stroke-width="2" stroke-linecap="round" stroke-linejoin="round" fill="none"/><path d="M370.73 19.94C381.8 31.01 381.8 48.96 370.73 60.03 359.66 71.1 341.72 71.1 330.65 60.03 319.58 48.96 319.58 31.01 330.65 19.94 341.72 8.87 359.66 8.87 370.73 19.94" stroke="#0066FF" stroke-width="2" stroke-linecap="round" stroke-linejoin="round" fill="#FFFFFF"/><text fill="#0066FF" font-family="Helvetica" font-weight="700" font-size="12" opacity="1" x="343.36" y="44.72">LL</text><path d="M462.85 19.94C473.92 31.01 473.92 48.96 462.85 60.03 451.78 71.1 433.83 71.1 422.76 60.03 411.69 48.96 411.69 31.01 422.76 19.94 433.83 8.87 451.78 8.87 462.85 19.94" stroke="#0066FF" stroke-width="2" stroke-linecap="round" stroke-linejoin="round" fill="#FFFFFF"/><text fill="#0066FF" font-family="Helvetica" font-weight="700" font-size="12" opacity="1" x="434.8" y="44.72">RL</text><path d="M275.15 51.39C286.22 62.46 286.22 80.41 275.15 91.48 264.08 102.55 246.14 102.55 235.07 91.48 224 80.41 224 62.46 235.07 51.39 246.14 40.32 264.08 40.32 275.15 51.39" stroke="#0066FF" stroke-width="2" stroke-linecap="round" stroke-linejoin="round" fill="#FFFFFF"/><text fill="#0066FF" font-family="Helvetica" font-weight="700" font-size="12" opacity="1" x="243.55" y="76.18">PAL</text><path d="M275.15 118.24C286.22 129.31 286.22 147.26 275.15 158.33 264.08 169.4 246.14 169.4 235.07 158.33 224 147.26 224 129.31 235.07 118.24 246.14 107.17 264.08 107.17 275.15 118.24" stroke="#0066FF" stroke-width="2" stroke-linecap="round" stroke-linejoin="round" fill="#FFFFFF"/><text fill="#0066FF" font-family="Helvetica" font-weight="700" font-size="12" opacity="1" x="242.88" y="143.02">PAR</text><path d="M181.21 110.58C192.28 121.65 192.28 139.6 181.21 150.67 170.14 161.74 152.19 161.74 141.12 150.67 130.05 139.6 130.05 121.65 141.12 110.58 152.19 99.51 170.14 99.51 181.21 110.58" stroke="#0066FF" stroke-width="2" stroke-linecap="round" stroke-linejoin="round" fill="#FFFFFF"/><text fill="#0066FF" font-family="Helvetica" font-weight="700" font-size="12" opacity="1" x="153.27" y="135.36">PA</text><path d="M116.55 197.61C127.62 208.68 127.62 226.62 116.55 237.69 105.48 248.76 87.53 248.76 76.46 237.69 65.39 226.62 65.39 208.68 76.46 197.61 87.53 186.54 105.48 186.54 116.55 197.61" stroke="#0066FF" stroke-width="2" stroke-linecap="round" stroke-linejoin="round" fill="none"/><text fill="#0066FF" font-family="Helvetica" font-weight="700" font-size="12" opacity="1" x="88.27" y="222.39">RV</text><path d="M77.97 291.3C89.04 302.37 89.04 320.32 77.97 331.39 66.9 342.46 48.95 342.46 37.88 331.39 26.81 320.32 26.81 302.37 37.88 291.3 48.95 280.23 66.9 280.23 77.97 291.3" stroke="#0066FF" stroke-width="2" stroke-linecap="round" stroke-linejoin="round" fill="none"/><text fill="#0066FF" font-family="Helvetica" font-weight="700" font-size="12" opacity="1" x="49.26" y="316.08">RA</text><path d="M564.14 44.67C575.21 55.74 575.21 73.69 564.14 84.76 553.07 95.83 535.12 95.83 524.05 84.76 512.98 73.69 512.98 55.74 524.05 44.67 535.12 33.6 553.07 33.6 564.14 44.67" stroke="#0066FF" stroke-width="2" stroke-linecap="round" stroke-linejoin="round" fill="#FFFFFF"/><text fill="#0066FF" font-family="Helvetica" font-weight="700" font-size="12" opacity="1" x="536.09" y="69.45">PV</text><path d="M671.02 118.24C682.09 129.31 682.09 147.26 671.02 158.33 659.95 169.4 642 169.4 630.93 158.33 619.86 147.26 619.86 129.31 630.93 118.24 642 107.17 659.95 107.17 671.02 118.24" stroke="#0066FF" stroke-width="2" stroke-linecap="round" stroke-linejoin="round" fill="none"/><text fill="#0066FF" font-family="Helvetica" font-weight="700" font-size="12" opacity="1" x="642.97" y="143.02">LA</text><path d="M729.31 202.28C740.38 213.35 740.38 231.3 729.31 242.37 718.24 253.44 700.29 253.44 689.22 242.37 678.15 231.3 678.15 213.35 689.22 202.28 700.29 191.21 718.24 191.21 729.31 202.28" stroke="#0066FF" stroke-width="2" stroke-linecap="round" stroke-linejoin="round" fill="none"/><text fill="#0066FF" font-family="Helvetica" font-weight="700" font-size="12" opacity="1" x="702.04" y="227.06">LV</text><path d="M422.46 721.31C433.53 732.38 433.53 750.33 422.46 761.4 411.39 772.47 393.45 772.47 382.38 761.4 371.31 750.33 371.31 732.38 382.38 721.31 393.45 710.24 411.39 710.24 422.46 721.31" stroke="#000000" stroke-width="2" stroke-linecap="round" stroke-linejoin="round" fill="#FFFFFF"/><text fill="#000000" font-family="Helvetica" font-weight="700" font-size="12" opacity="1" x="390.09" y="746.09">RLB</text><path d="M422.46 657.19C433.53 668.26 433.53 686.21 422.46 697.28 411.39 708.35 393.45 708.35 382.38 697.28 371.31 686.21 371.31 668.26 382.38 657.19 393.45 646.12 411.39 646.12 422.46 657.19" stroke="#000000" stroke-width="2" stroke-linecap="round" stroke-linejoin="round" fill="#FFFFFF"/><text fill="#000000" font-family="Helvetica" font-weight="700" font-size="12" opacity="1" x="392.09" y="681.98">KID</text><path d="M422.46 593.65C433.53 604.72 433.53 622.67 422.46 633.74 411.39 644.81 393.45 644.81 382.38 633.74 371.31 622.67 371.31 604.72 382.38 593.65 393.45 582.58 411.39 582.58 422.46 593.65" stroke="#000000" stroke-width="2" stroke-linecap="round" stroke-linejoin="round" fill="#FFFFFF"/><text fill="#000000" font-family="Helvetica" font-weight="700" font-size="12" opacity="1" x="392.75" y="618.44">INT</text><path d="M422.46 530.06C433.53 541.13 433.53 559.08 422.46 570.15 411.39 581.22 393.45 581.22 382.38 570.15 371.31 559.08 371.31 541.13 382.38 530.06 393.45 518.99 411.39 518.99 422.46 530.06" stroke="#000000" stroke-width="2" stroke-linecap="round" stroke-linejoin="round" fill="#FFFFFF"/><text fill="#000000" font-family="Helvetica" font-weight="700" font-size="12" opacity="1" x="394.75" y="554.84">LS</text><path d="M697.86 593.93C708.93 605 708.93 622.95 697.86 634.02 686.79 645.09 668.84 645.09 657.77 634.02 646.7 622.95 646.7 605 657.77 593.93 668.84 582.86 686.79 582.86 697.86 593.93" stroke="#000000" stroke-width="2" stroke-linecap="round" stroke-linejoin="round" fill="#FFFFFF"/><text fill="#000000" font-family="Helvetica" font-weight="700" font-size="12" opacity="1" x="669.15" y="618.72">AD</text><path d="M651.63 603.13C587.31 566.6 514.22 548.36 440.27 550.38" stroke="#000000" stroke-width="2" stroke-linecap="round" stroke-linejoin="round" fill="none"/><path d="M649.47 613.98 440.27 613.98" stroke="#000000" stroke-width="2" stroke-linecap="round" stroke-linejoin="round" fill="none"/><path d="M651.63 624.82C587.37 661.51 514.23 679.74 440.27 677.52" stroke="#000000" stroke-width="2" stroke-linecap="round" stroke-linejoin="round" fill="none"/><path d="M657.77 634.02C597.44 695.89 516.87 733.99 430.77 741.35" stroke="#000000" stroke-width="2" stroke-linecap="round" stroke-linejoin="round" fill="none"/><path d="M147.66 593.93C158.73 605 158.73 622.95 147.66 634.02 136.59 645.09 118.65 645.09 107.58 634.02 96.51 622.95 96.51 605 107.58 593.93 118.65 582.86 136.59 582.86 147.66 593.93" stroke="#000000" stroke-width="2" stroke-linecap="round" stroke-linejoin="round" fill="#FFFFFF"/><text fill="#000000" font-family="Helvetica" font-weight="700" font-size="12" opacity="1" x="115.62" y="618.72">VLB</text><path d="M364.11 550.5C290.34 546.79 217.13 565.11 153.81 603.13" stroke="#000000" stroke-width="2" stroke-linecap="round" stroke-linejoin="round" fill="none"/><path d="M364.11 614.1 155.97 613.98" stroke="#000000" stroke-width="2" stroke-linecap="round" stroke-linejoin="round" fill="none"/><path d="M153.81 624.82C216.9 663.43 290.27 681.86 364.11 677.64" stroke="#000000" stroke-width="2" stroke-linecap="round" stroke-linejoin="round" fill="none"/><path d="M147.66 634.02C207.18 696.68 287.89 734.94 374.07 741.35" stroke="#000000" stroke-width="2" stroke-linecap="round" stroke-linejoin="round" fill="none"/><path d="M65.97 441.31C77.04 452.38 77.04 470.33 65.97 481.4 54.9 492.47 36.95 492.47 25.88 481.4 14.81 470.33 14.81 452.38 25.88 441.31 36.95 430.24 54.9 430.24 65.97 441.31" stroke="#0066FF" stroke-width="2" stroke-linecap="round" stroke-linejoin="round" fill="#FFFFFF"/><text fill="#0066FF" font-family="Helvetica" font-weight="700" font-size="12" opacity="1" x="34.26" y="466.09">IVCI</text><path d="M767.62 441.31C778.69 452.38 778.69 470.33 767.62 481.4 756.55 492.47 738.6 492.47 727.53 481.4 716.46 470.33 716.46 452.38 727.53 441.31 738.6 430.24 756.55 430.24 767.62 441.31" stroke="#0066FF" stroke-width="2" stroke-linecap="round" stroke-linejoin="round" fill="#FFFFFF"/><text fill="#0066FF" font-family="Helvetica" font-weight="700" font-size="12" opacity="1" x="734.57" y="466.09">AAR</text><path d="M747.57 489.7C737.54 527.2 720.69 562.53 697.86 593.93" stroke="#000000" stroke-width="2" stroke-linecap="round" stroke-linejoin="round" fill="none"/><path d="M107.58 593.93C83.72 562.21 66.45 526.03 56.77 487.54" stroke="#000000" stroke-width="2" stroke-linecap="round" stroke-linejoin="round" fill="none"/><path d="M45.93 433.01C42.09 401.27 42.48 369.17 47.08 337.53" stroke="#0066FF" stroke-width="2" stroke-linecap="round" stroke-linejoin="round" fill="none"/><path d="M766.62 291.3C777.69 302.37 777.69 320.32 766.62 331.39 755.55 342.46 737.6 342.46 726.53 331.39 715.46 320.32 715.46 302.37 726.53 291.3 737.6 280.23 755.55 280.23 766.62 291.3" stroke="#0066FF" stroke-width="2" stroke-linecap="round" stroke-linejoin="round" fill="#FFFFFF"/><text fill="#0066FF" font-family="Helvetica" font-weight="700" font-size="12" opacity="1" x="737.91" y="316.08">AA</text><path d="M275.15 51.39C290.55 46.31 306.33 42.49 322.34 39.98" stroke="#0066FF" stroke-width="2" stroke-linecap="round" stroke-linejoin="round" fill="none"/><path d="M570.29 75.56C592.35 86.96 612.75 101.32 630.93 118.24" stroke="#0066FF" stroke-width="2" stroke-linecap="round" stroke-linejoin="round" fill="none"/><path d="M671.02 158.33C681.5 169.89 690.69 182.57 698.41 196.14" stroke="#0066FF" stroke-width="2" stroke-linecap="round" stroke-linejoin="round" fill="none"/><path d="M729.31 242.37C736.44 255.28 742.22 268.9 746.57 283" stroke="#0066FF" stroke-width="2" stroke-linecap="round" stroke-linejoin="round" fill="none"/><path d="M757.42 337.53C763.69 369.74 764.03 402.83 758.42 435.16" stroke="#0066FF" stroke-width="2" stroke-linecap="round" stroke-linejoin="round" fill="none"/><path d="M181.21 110.58C193.81 94.79 209.26 81.51 226.76 71.44" stroke="#0066FF" stroke-width="2" stroke-linecap="round" stroke-linejoin="round" fill="none"/><path d="M189.51 130.62C201.25 135.76 213.95 138.37 226.76 138.28" stroke="#0066FF" stroke-width="2" stroke-linecap="round" stroke-linejoin="round" fill="none"/><path d="M107.35 191.46C116.7 176.39 128.06 162.66 141.12 150.67" stroke="#0066FF" stroke-width="2" stroke-linecap="round" stroke-linejoin="round" fill="none"/><path d="M57.93 283C62.81 267.4 69.01 252.24 76.46 237.69" stroke="#0066FF" stroke-width="2" stroke-linecap="round" stroke-linejoin="round" fill="none"/><path d="M422.33 405.55C433.4 416.62 433.4 434.57 422.33 445.64 411.26 456.71 393.31 456.71 382.24 445.64 371.17 434.57 371.17 416.62 382.24 405.55 393.31 394.48 411.26 394.48 422.33 405.55" stroke="#000000" stroke-width="2" stroke-linecap="round" stroke-linejoin="round" fill="#FFFFFF"/><text fill="#000000" font-family="Helvetica" font-weight="700" font-size="12" opacity="1" x="389.28" y="430.34">RUB</text><path d="M422.33 342.76C433.4 353.83 433.4 371.77 422.33 382.84 411.26 393.91 393.31 393.91 382.24 382.84 371.17 371.77 371.17 353.83 382.24 342.76 393.31 331.69 411.26 331.69 422.33 342.76" stroke="#000000" stroke-width="2" stroke-linecap="round" stroke-linejoin="round" fill="#FFFFFF"/><text fill="#000000" font-family="Helvetica" font-weight="700" font-size="12" opacity="1" x="393.62" y="367.54">BR</text><path d="M422.33 467.66C433.4 478.73 433.4 496.68 422.33 507.75 411.26 518.82 393.31 518.82 382.24 507.75 371.17 496.68 371.17 478.73 382.24 467.66 393.31 456.59 411.26 456.59 422.33 467.66" stroke="#0066FF" stroke-width="2" stroke-linecap="round" stroke-linejoin="round" fill="none"/><text fill="#0066FF" font-family="Helvetica" font-weight="700" font-size="12" opacity="1" x="388.95" y="492.44">COR</text><path d="M726.53 331.39C656.22 425.11 547.67 482.45 430.63 487.7" stroke="#0066FF" stroke-width="2" stroke-linecap="round" stroke-linejoin="round" fill="none"/><path d="M373.93 487.7C259.06 474.92 153.3 419.06 77.97 331.39" stroke="#0066FF" stroke-width="2" stroke-linecap="round" stroke-linejoin="round" fill="none"/><path d="M412.44 254.71C417.98 260.25 417.98 269.22 412.44 274.76 406.91 280.29 397.93 280.29 392.4 274.76 386.86 269.22 386.86 260.25 392.4 254.71 397.93 249.18 406.91 249.18 412.44 254.71" stroke="#0066FF" stroke-width="2" stroke-linecap="round" stroke-linejoin="round" fill="#FFFFFF"/><text fill="#0066FF" font-family="Helvetica" font-weight="700" font-size="12" opacity="1" x="393.75" y="269.47">DA</text><path d="M721.38 450.5 415.51 270.16" stroke="#0066FF" stroke-width="2" stroke-linecap="round" stroke-linejoin="round" stroke-dasharray="2 4 2 2" fill="none"/><path d="M389.32 259.31 181.21 150.67" stroke="#0066FF" stroke-width="2" stroke-linecap="round" stroke-linejoin="round" stroke-dasharray="2 4 2 2" fill="none"/><path d="M680.92 222.32 124.85 217.65" stroke="#0066FF" stroke-width="2" stroke-linecap="round" stroke-linejoin="round" stroke-dasharray="2 4 2 2" fill="none"/><path d="M437.36 355.87C441.24 359.75 441.24 366.03 437.36 369.9 433.49 373.78 427.21 373.78 423.33 369.9 419.46 366.03 419.46 359.75 423.33 355.87 427.21 352 433.49 352 437.36 355.87" stroke="#000000" stroke-width="2" stroke-linecap="round" stroke-linejoin="round" fill="#FFFFFF"/><text fill="#000000" font-family="Helvetica" font-weight="700" font-size="8" opacity="1" x="427.46" y="366.55">A</text><path d="M437.36 543.37C441.24 547.24 441.24 553.53 437.36 557.4 433.49 561.27 427.21 561.27 423.33 557.4 419.46 553.53 419.46 547.24 423.33 543.37 427.21 539.49 433.49 539.49 437.36 543.37" stroke="#000000" stroke-width="2" stroke-linecap="round" stroke-linejoin="round" fill="#FFFFFF"/><text fill="#000000" font-family="Helvetica" font-weight="700" font-size="8" opacity="1" x="427.46" y="554.04">A</text><path d="M381.05 543.49C384.92 547.36 384.92 553.65 381.05 557.52 377.18 561.39 370.89 561.39 367.02 557.52 363.14 553.65 363.14 547.36 367.02 543.49 370.89 539.61 377.18 539.61 381.05 543.49" stroke="#000000" stroke-width="2" stroke-linecap="round" stroke-linejoin="round" fill="#FFFFFF"/><text fill="#000000" font-family="Helvetica" font-weight="700" font-size="8" opacity="1" x="371.37" y="554.16">V</text><path d="M437.36 606.96C441.24 610.84 441.24 617.12 437.36 620.99 433.49 624.87 427.21 624.87 423.33 620.99 419.46 617.12 419.46 610.84 423.33 606.96 427.21 603.09 433.49 603.09 437.36 606.96" stroke="#000000" stroke-width="2" stroke-linecap="round" stroke-linejoin="round" fill="#FFFFFF"/><text fill="#000000" font-family="Helvetica" font-weight="700" font-size="8" opacity="1" x="427.46" y="617.64">A</text><path d="M437.36 670.5C441.24 674.38 441.24 680.66 437.36 684.53 433.49 688.41 427.21 688.41 423.33 684.53 419.46 680.66 419.46 674.38 423.33 670.5 427.21 666.63 433.49 666.63 437.36 670.5" stroke="#000000" stroke-width="2" stroke-linecap="round" stroke-linejoin="round" fill="#FFFFFF"/><text fill="#000000" font-family="Helvetica" font-weight="700" font-size="8" opacity="1" x="427.46" y="681.18">A</text><path d="M381.05 607.08C384.92 610.96 384.92 617.24 381.05 621.11 377.18 624.99 370.89 624.99 367.02 621.11 363.14 617.24 363.14 610.96 367.02 607.08 370.89 603.21 377.18 603.21 381.05 607.08" stroke="#000000" stroke-width="2" stroke-linecap="round" stroke-linejoin="round" fill="#FFFFFF"/><text fill="#000000" font-family="Helvetica" font-weight="700" font-size="8" opacity="1" x="371.37" y="617.76">V</text><path d="M381.05 670.62C384.92 674.5 384.92 680.78 381.05 684.65 377.18 688.53 370.89 688.53 367.02 684.65 363.14 680.78 363.14 674.5 367.02 670.62 370.89 666.75 377.18 666.75 381.05 670.62" stroke="#000000" stroke-width="2" stroke-linecap="round" stroke-linejoin="round" fill="#FFFFFF"/><text fill="#000000" font-family="Helvetica" font-weight="700" font-size="8" opacity="1" x="371.37" y="681.3">V</text><path d="M381.05 355.87C384.92 359.75 384.92 366.03 381.05 369.9 377.18 373.78 370.89 373.78 367.02 369.9 363.14 366.03 363.14 359.75 367.02 355.87 370.89 352 377.18 352 381.05 355.87" stroke="#000000" stroke-width="2" stroke-linecap="round" stroke-linejoin="round" fill="#FFFFFF"/><text fill="#000000" font-family="Helvetica" font-weight="700" font-size="8" opacity="1" x="371.37" y="366.55">V</text><path d="M330.71 32.97C334.59 36.84 334.59 43.12 330.71 47 326.84 50.87 320.56 50.87 316.68 47 312.81 43.12 312.81 36.84 316.68 32.97 320.56 29.09 326.84 29.09 330.71 32.97" stroke="#0066FF" stroke-width="2" stroke-linecap="round" stroke-linejoin="round" fill="#FFFFFF"/><text fill="#0066FF" font-family="Helvetica" font-weight="700" font-size="8" opacity="1" x="320.81" y="43.64">A</text><path d="M422.36 32.97C426.24 36.84 426.24 43.12 422.36 47 418.49 50.87 412.21 50.87 408.33 47 404.46 43.12 404.46 36.84 408.33 32.97 412.21 29.09 418.49 29.09 422.36 32.97" stroke="#0066FF" stroke-width="2" stroke-linecap="round" stroke-linejoin="round" fill="#FFFFFF"/><text fill="#0066FF" font-family="Helvetica" font-weight="700" font-size="8" opacity="1" x="412.46" y="43.64">A</text><path d="M383.85 32.97C387.73 36.84 387.73 43.12 383.85 47 379.98 50.87 373.7 50.87 369.82 47 365.95 43.12 365.95 36.84 369.82 32.97 373.7 29.09 379.98 29.09 383.85 32.97" stroke="#0066FF" stroke-width="2" stroke-linecap="round" stroke-linejoin="round" fill="#FFFFFF"/><text fill="#0066FF" font-family="Helvetica" font-weight="700" font-size="8" opacity="1" x="374.17" y="43.64">V</text><path d="M476.18 32.97C480.05 36.84 480.05 43.12 476.18 47 472.3 50.87 466.02 50.87 462.15 47 458.27 43.12 458.27 36.84 462.15 32.97 466.02 29.09 472.3 29.09 476.18 32.97" stroke="#0066FF" stroke-width="2" stroke-linecap="round" stroke-linejoin="round" fill="#FFFFFF"/><text fill="#0066FF" font-family="Helvetica" font-weight="700" font-size="8" opacity="1" x="466.5" y="43.64">V</text><path d="M720.38 322.19C638.68 389.16 536.27 425.71 430.63 425.6" stroke="#000000" stroke-width="2" stroke-linecap="round" stroke-linejoin="round" fill="none"/><path d="M718.23 311.34C629.33 345.28 534.64 361.5 439.52 359.09" stroke="#000000" stroke-width="2" stroke-linecap="round" stroke-linejoin="round" fill="none"/><path d="M303.47 376.71C314.54 387.78 314.54 405.73 303.47 416.8 292.4 427.87 274.46 427.87 263.39 416.8 252.32 405.73 252.32 387.78 263.39 376.71 274.46 365.64 292.4 365.64 303.47 376.71" stroke="#000000" stroke-width="2" stroke-linecap="round" stroke-linejoin="round" fill="#FFFFFF"/><text fill="#000000" font-family="Helvetica" font-weight="700" font-size="12" opacity="1" x="270.76" y="401.49">VUB</text><path d="M195.39 320.02C206.46 331.09 206.46 349.03 195.39 360.1 184.32 371.17 166.37 371.17 155.3 360.1 144.23 349.03 144.23 331.09 155.3 320.02 166.37 308.95 184.32 308.95 195.39 320.02" stroke="#0066FF" stroke-width="2" stroke-linecap="round" stroke-linejoin="round" fill="#FFFFFF"/><text fill="#0066FF" font-family="Helvetica" font-weight="700" font-size="12" opacity="1" x="163" y="344.8">SVC</text><path d="M364.11 362.89C343.57 362.81 323.89 371.13 309.62 385.91" stroke="#000000" stroke-width="2" stroke-linecap="round" stroke-linejoin="round" fill="none"/><path d="M373.93 425.6C351.21 425.9 328.88 419.65 309.62 407.6" stroke="#000000" stroke-width="2" stroke-linecap="round" stroke-linejoin="round" fill="none"/><path d="M257.24 385.91 201.53 350.91" stroke="#000000" stroke-width="2" stroke-linecap="round" stroke-linejoin="round" fill="none"/><path d="M147 340.06C125.07 338.24 103.72 332.17 84.11 322.19" stroke="#0066FF" stroke-width="2" stroke-linecap="round" stroke-linejoin="round" fill="none"/><text fill="#0066FF" font-family="Helvetica" font-weight="700" font-size="12" opacity="1" x="477.93" y="210.5">VSD</text><text fill="#0066FF" font-family="Helvetica" font-weight="700" font-size="12" opacity="1" transform="matrix(0.991805 -0.127757 0.127757 0.991805 -17.3206 49.4812)" x="377.06" y="159.76">IPS</text><path d="M84.11 300.49 624.78 149.13" stroke="#0066FF" stroke-width="2" stroke-linecap="round" stroke-linejoin="round" stroke-dasharray="2 4 2 2" fill="none"/><text fill="#0066FF" font-family="Helvetica" font-weight="700" font-size="12" opacity="1" transform="matrix(0.974917 -0.22257 0.22257 0.974917 -50.9206 52.9682)" x="209.54" y="252.4">FO</text><text fill="#0066FF" font-family="Helvetica" font-weight="700" font-size="12" opacity="1" transform="matrix(0.862249 0.506485 -0.506485 0.862249 227.71 -209.565)" x="499.12" y="313.84">DA</text><path d="M683.76 165.03 690.85 179.2 676.68 179.2Z" stroke="#0066FF" stroke-width="2" stroke-linecap="round" stroke-linejoin="round" fill="#FFFFFF" transform="matrix(-0.779775 0.62606 -0.62606 -0.779775 1328.23 -116.064)"/><path d="M611.6 92.42 618.69 106.59 604.52 106.59Z" stroke="#0066FF" stroke-width="2" stroke-linecap="round" stroke-linejoin="round" fill="#FFFFFF" transform="matrix(0.59145 -0.806341 0.806341 0.59145 166.471 534.339)"/><path d="M594.92 76.76 602 90.93 587.83 90.93Z" stroke="#0066FF" stroke-width="2" stroke-linecap="round" stroke-linejoin="round" fill="#FFFFFF" transform="matrix(-0.568562 0.822641 -0.822641 -0.568562 1002.89 -351.653)"/><path d="M315.06 120.19 322.15 134.37 307.97 134.37Z" stroke="#0066FF" stroke-width="2" stroke-linecap="round" stroke-linejoin="round" fill="#FFFFFF" transform="matrix(0.360485 0.932765 -0.932765 0.360485 323.404 -212.921)"/><path d="M287.23 40.69 294.32 54.86 280.14 54.86Z" stroke="#0066FF" stroke-width="2" stroke-linecap="round" stroke-linejoin="round" fill="#FFFFFF" transform="matrix(0.237855 0.971301 -0.971301 0.237855 267.585 -243.038)"/><path d="M301.26 34.61 308.35 48.79 294.17 48.79Z" stroke="#0066FF" stroke-width="2" stroke-linecap="round" stroke-linejoin="round" fill="#FFFFFF" transform="matrix(-0.211837 -0.977305 0.977305 -0.211837 324.886 347.509)"/><path d="M191.29 88.73 198.37 102.9 184.2 102.9Z" stroke="#0066FF" stroke-width="2" stroke-linecap="round" stroke-linejoin="round" fill="#FFFFFF" transform="matrix(0.725615 0.688101 -0.688101 0.725615 120.798 -104.236)"/><path d="M204.77 74.97 211.85 89.14 197.68 89.14Z" stroke="#0066FF" stroke-width="2" stroke-linecap="round" stroke-linejoin="round" fill="#FFFFFF" transform="matrix(-0.619368 -0.785101 0.785101 -0.619368 265.8 299.865)"/><path d="M202.31 123.77 209.39 137.95 195.22 137.95Z" stroke="#0066FF" stroke-width="2" stroke-linecap="round" stroke-linejoin="round" fill="#FFFFFF" transform="matrix(-0.282844 0.959166 -0.959166 -0.282844 384.412 -22.6402)"/><path d="M215.63 130.24 222.72 144.41 208.55 144.41Z" stroke="#0066FF" stroke-width="2" stroke-linecap="round" stroke-linejoin="round" fill="#FFFFFF" transform="matrix(0.112163 -0.99369 0.99369 0.112163 53.847 335.887)"/><path d="M121.03 161.23 128.12 175.41 113.94 175.41Z" stroke="#0066FF" stroke-width="2" stroke-linecap="round" stroke-linejoin="round" fill="#FFFFFF" transform="matrix(0.738573 0.674173 -0.674173 0.738573 147.414 -36.4533)"/><path d="M65.56 251.58 72.65 265.76 58.48 265.76Z" stroke="#0066FF" stroke-width="2" stroke-linecap="round" stroke-linejoin="round" fill="#FFFFFF" transform="matrix(0.92666 0.375901 -0.375901 0.92666 102.737 -4.77286)"/><path d="M43.93 386.26 51.02 400.43 36.84 400.43Z" stroke="#0066FF" stroke-width="2" stroke-linecap="round" stroke-linejoin="round" fill="#FFFFFF" transform="matrix(0.999473 -0.0324574 0.0324574 0.999473 -12.7478 1.64063)"/><path d="M44.33 372.69 51.42 386.87 37.25 386.87Z" stroke="#0066FF" stroke-width="2" stroke-linecap="round" stroke-linejoin="round" fill="#FFFFFF" transform="matrix(-0.99958 -0.0289684 0.0289684 -0.99958 77.2367 760.899)"/><path d="M77.66 533.65 84.74 547.82 70.57 547.82Z" stroke="#000000" stroke-width="2" stroke-linecap="round" stroke-linejoin="round" fill="#FFFFFF" transform="matrix(0.878233 -0.478232 0.478232 0.878233 -250.329 104.263)"/><path d="M199.16 422.11 206.25 436.28 192.08 436.28Z" stroke="#0066FF" stroke-width="2" stroke-linecap="round" stroke-linejoin="round" fill="#FFFFFF" transform="matrix(0.478998 -0.877816 0.877816 0.478998 -276.598 398.31)"/><path d="M183.69 409 190.77 423.18 176.6 423.18Z" stroke="#0066FF" stroke-width="2" stroke-linecap="round" stroke-linejoin="round" fill="#FFFFFF" transform="matrix(-0.532138 0.846658 -0.846658 -0.532138 634.066 488.176)"/><path d="M264.09 549 271.18 563.18 257 563.18Z" stroke="#000000" stroke-width="2" stroke-linecap="round" stroke-linejoin="round" fill="#FFFFFF" transform="matrix(-0.246492 -0.969145 0.969145 -0.246492 -209.142 952.133)"/><path d="M264.65 606.76 271.74 620.94 257.57 620.94Z" stroke="#000000" stroke-width="2" stroke-linecap="round" stroke-linejoin="round" fill="#FFFFFF" transform="matrix(-0.0116934 -0.999932 0.999932 -0.0116934 -346.012 885.79)"/><path d="M266.77 662.8 273.86 676.97 259.69 676.97Z" stroke="#000000" stroke-width="2" stroke-linecap="round" stroke-linejoin="round" fill="#FFFFFF" transform="matrix(0.213883 -0.976859 0.976859 0.213883 -446.749 786.753)"/><path d="M266.16 707.45 273.25 721.62 259.07 721.62Z" stroke="#000000" stroke-width="2" stroke-linecap="round" stroke-linejoin="round" fill="#FFFFFF" transform="matrix(0.393942 -0.919135 0.919135 0.393942 -498.862 677.276)"/><path d="M124.07 329.46 131.16 343.64 116.99 343.64Z" stroke="#0066FF" stroke-width="2" stroke-linecap="round" stroke-linejoin="round" fill="#FFFFFF" transform="matrix(0.305695 -0.952129 0.952129 0.305695 -237.107 351.325)"/><path d="M109.32 319.78 116.41 333.95 102.23 333.95Z" stroke="#0066FF" stroke-width="2" stroke-linecap="round" stroke-linejoin="round" fill="#FFFFFF" transform="matrix(-0.363739 0.931501 -0.931501 -0.363739 452.916 348.636)"/><path d="M230.6 359.66 237.69 373.83 223.52 373.83Z" stroke="#000000" stroke-width="2" stroke-linecap="round" stroke-linejoin="round" fill="#FFFFFF" transform="matrix(0.564535 -0.825409 0.825409 0.564535 -205.582 350.427)"/><path d="M337.68 356.5 344.77 370.67 330.59 370.67Z" stroke="#000000" stroke-width="2" stroke-linecap="round" stroke-linejoin="round" fill="#FFFFFF" transform="matrix(-0.301039 -0.953612 0.953612 -0.301039 93.2623 798.838)"/><path d="M340.78 413.52 347.87 427.69 333.7 427.69Z" stroke="#000000" stroke-width="2" stroke-linecap="round" stroke-linejoin="round" fill="#FFFFFF" transform="matrix(0.259662 -0.9657 0.9657 0.259662 -156.337 640.014)"/><path d="M534.78 552.67 541.87 566.84 527.69 566.84Z" stroke="#000000" stroke-width="2" stroke-linecap="round" stroke-linejoin="round" fill="#FFFFFF" transform="matrix(0.211325 -0.977416 0.977416 0.211325 -127.4 963.711)"/><path d="M519.49 546.39 526.57 560.56 512.4 560.56Z" stroke="#000000" stroke-width="2" stroke-linecap="round" stroke-linejoin="round" fill="#FFFFFF" transform="matrix(-0.198855 0.980029 -0.980029 -0.198855 1164.68 156.805)"/><path d="M529.57 607.8 536.66 621.97 522.48 621.97Z" stroke="#000000" stroke-width="2" stroke-linecap="round" stroke-linejoin="round" fill="#FFFFFF" transform="matrix(0.0078539 -0.999969 0.999969 0.0078539 -89.5398 1139.57)"/><path d="M515.97 607.24 523.06 621.41 508.89 621.41Z" stroke="#000000" stroke-width="2" stroke-linecap="round" stroke-linejoin="round" fill="#FFFFFF" transform="matrix(-0.0078539 0.999969 -0.999969 -0.0078539 1134.3 103.271)"/><path d="M532.01 660.36 539.09 674.54 524.92 674.54Z" stroke="#000000" stroke-width="2" stroke-linecap="round" stroke-linejoin="round" fill="#FFFFFF" transform="matrix(-0.169694 -0.985497 0.985497 -0.169694 -35.0064 1307.01)"/><path d="M517.61 665.17 524.69 679.34 510.52 679.34Z" stroke="#000000" stroke-width="2" stroke-linecap="round" stroke-linejoin="round" fill="#FFFFFF" transform="matrix(0.132948 0.991123 -0.991123 0.132948 1116.43 69.5183)"/><path d="M536.71 705.23 543.8 719.4 529.63 719.4Z" stroke="#000000" stroke-width="2" stroke-linecap="round" stroke-linejoin="round" fill="#FFFFFF" transform="matrix(-0.349553 -0.936916 0.936916 -0.349553 57.5925 1468.66)"/><path d="M521.23 714.37 528.31 728.54 514.14 728.54Z" stroke="#000000" stroke-width="2" stroke-linecap="round" stroke-linejoin="round" fill="#FFFFFF" transform="matrix(0.361625 0.932324 -0.932324 0.361625 1008.58 -25.8295)"/><path d="M727.38 533.49 734.46 547.66 720.29 547.66Z" stroke="#000000" stroke-width="2" stroke-linecap="round" stroke-linejoin="round" fill="#FFFFFF" transform="matrix(0.911403 0.411514 -0.411514 0.911403 287.754 -250.363)"/><path d="M738.97 517.83 746.05 532.01 731.88 532.01Z" stroke="#000000" stroke-width="2" stroke-linecap="round" stroke-linejoin="round" fill="#FFFFFF" transform="matrix(-0.904678 -0.426095 0.426095 -0.904678 1178.72 1318.83)"/><path d="M502.65 350.38 509.74 364.56 495.56 364.56Z" stroke="#000000" stroke-width="2" stroke-linecap="round" stroke-linejoin="round" fill="#FFFFFF" transform="matrix(-0.0552987 -0.99847 0.99847 -0.0552987 173.704 879.73)"/><path d="M487.93 351.53 495.02 365.7 480.84 365.7Z" stroke="#000000" stroke-width="2" stroke-linecap="round" stroke-linejoin="round" fill="#FFFFFF" transform="matrix(0.0680153 0.997684 -0.997684 0.0680153 813.24 -152.789)"/><path d="M506.86 411.2 513.95 425.37 499.77 425.37Z" stroke="#000000" stroke-width="2" stroke-linecap="round" stroke-linejoin="round" fill="#FFFFFF" transform="matrix(-0.138309 -0.990389 0.990389 -0.138309 163.104 979.729)"/><path d="M491.64 414.69 498.73 428.86 484.56 428.86Z" stroke="#000000" stroke-width="2" stroke-linecap="round" stroke-linejoin="round" fill="#FFFFFF" transform="matrix(0.150916 0.988547 -0.988547 0.150916 835.897 -128.274)"/><path d="M509.75 464.97 516.83 479.14 502.66 479.14Z" stroke="#0066FF" stroke-width="2" stroke-linecap="round" stroke-linejoin="round" fill="#FFFFFF" transform="matrix(-0.300373 -0.953822 0.953822 -0.300373 213.254 1103.84)"/><path d="M494.81 472.76 501.9 486.94 487.72 486.94Z" stroke="#0066FF" stroke-width="2" stroke-linecap="round" stroke-linejoin="round" fill="#FFFFFF" transform="matrix(0.173133 0.984899 -0.984899 0.173133 883.463 -90.9706)"/><path d="M761.94 380.71 769.03 394.88 754.85 394.88Z" stroke="#0066FF" stroke-width="2" stroke-linecap="round" stroke-linejoin="round" fill="#FFFFFF" transform="matrix(0.999781 -0.0209424 0.0209424 0.999781 -7.9558 16.0451)"/><path d="M761.44 368.4 768.53 382.57 754.36 382.57Z" stroke="#0066FF" stroke-width="2" stroke-linecap="round" stroke-linejoin="round" fill="#FFFFFF" transform="matrix(-0.999534 0.0305385 -0.0305385 -0.999534 1534.44 727.765)"/><path d="M735.96 251.15 743.05 265.32 728.87 265.32Z" stroke="#0066FF" stroke-width="2" stroke-linecap="round" stroke-linejoin="round" fill="#FFFFFF" transform="matrix(-0.936733 0.350044 -0.350044 -0.936733 1520.12 245.774)"/><path d="M449.01 280.86 456.1 295.03 441.92 295.03Z" stroke="#0066FF" stroke-width="2" stroke-linecap="round" stroke-linejoin="round" stroke-dasharray="2 4 2 2" fill="#FFFFFF" transform="matrix(0.500453 -0.865763 0.865763 0.500453 -28.5373 532.582)"/><path d="M433.55 267.43 440.64 281.6 426.47 281.6Z" stroke="#0066FF" stroke-width="2" stroke-linecap="round" stroke-linejoin="round" stroke-dasharray="2 4 2 2" fill="#FFFFFF" transform="matrix(-0.486793 0.873517 -0.873517 -0.486793 884.261 35.5409)"/><path d="M377.23 244.76 384.32 258.94 370.15 258.94Z" stroke="#0066FF" stroke-width="2" stroke-linecap="round" stroke-linejoin="round" stroke-dasharray="2 4 2 2" fill="#FFFFFF" transform="matrix(0.472705 -0.881221 0.881221 0.472705 -26.6569 465.051)"/><path d="M363.21 232.79 370.29 246.96 356.12 246.96Z" stroke="#0066FF" stroke-width="2" stroke-linecap="round" stroke-linejoin="round" stroke-dasharray="2 4 2 2" fill="#FFFFFF" transform="matrix(-0.491208 0.871042 -0.871042 -0.491208 750.463 47.4607)"/><path d="M497.06 214.35 504.14 228.53 489.97 228.53Z" stroke="#0066FF" stroke-width="2" stroke-linecap="round" stroke-linejoin="round" stroke-dasharray="2 4 2 2" fill="#FFFFFF" transform="matrix(-0.00837748 -0.999965 0.999965 -0.00837748 279.822 720.428)"/><path d="M483.91 213.54 491 227.71 476.82 227.71Z" stroke="#0066FF" stroke-width="2" stroke-linecap="round" stroke-linejoin="round" stroke-dasharray="2 4 2 2" fill="#FFFFFF" transform="matrix(-0.0530331 0.998593 -0.998593 -0.0530331 729.703 -250.318)"/><path d="M225.27 249.26 232.35 263.43 218.18 263.43Z" stroke="#0066FF" stroke-width="2" stroke-linecap="round" stroke-linejoin="round" stroke-dasharray="2 4 2 2" fill="#FFFFFF" transform="matrix(-0.304698 -0.952449 0.952449 -0.304698 50.393 552.848)"/><path d="M210.72 257.23 217.81 271.4 203.63 271.4Z" stroke="#0066FF" stroke-width="2" stroke-linecap="round" stroke-linejoin="round" stroke-dasharray="2 4 2 2" fill="#FFFFFF" transform="matrix(0.245646 0.96936 -0.96936 0.245646 417.519 -5.33949)"/><path d="M394.56 159.89 401.65 174.07 387.48 174.07Z" stroke="#0066FF" stroke-width="2" stroke-linecap="round" stroke-linejoin="round" stroke-dasharray="2 4 2 2" fill="#FFFFFF" transform="matrix(-0.195261 -0.980751 0.980751 -0.195261 308.363 588.882)"/><path d="M380.55 164.76 387.64 178.93 373.47 178.93Z" stroke="#0066FF" stroke-width="2" stroke-linecap="round" stroke-linejoin="round" stroke-dasharray="2 4 2 2" fill="#FFFFFF" transform="matrix(0.134678 0.990889 -0.990889 0.134678 500.939 -228.73)"/><path d="M116.55 204.58C127.62 211.8 127.62 223.5 116.55 230.72 105.48 237.94 87.53 237.94 76.46 230.72 65.39 223.5 65.39 211.8 76.46 204.58 87.53 197.36 105.48 197.36 116.55 204.58" stroke="#0066FF" stroke-width="1" stroke-linecap="round" stroke-linejoin="round" stroke-dasharray="2 4" fill="none"/><path d="M77.78 298.27C88.85 305.49 88.85 317.19 77.78 324.41 66.71 331.63 48.76 331.63 37.69 324.41 26.62 317.19 26.62 305.49 37.69 298.27 48.76 291.05 66.71 291.05 77.78 298.27" stroke="#0066FF" stroke-width="1" stroke-linecap="round" stroke-linejoin="round" stroke-dasharray="2 4" fill="none"/><path d="M671.02 126.39C682.09 133.6 682.09 145.31 671.02 152.53 659.95 159.75 642 159.75 630.93 152.53 619.86 145.31 619.86 133.6 630.93 126.39 642 119.17 659.95 119.17 671.02 126.39" stroke="#0066FF" stroke-width="1" stroke-linecap="round" stroke-linejoin="round" stroke-dasharray="2 4" fill="none"/><path d="M729.31 209.25C740.38 216.47 740.38 228.18 729.31 235.39 718.24 242.61 700.29 242.61 689.22 235.39 678.15 228.18 678.15 216.47 689.22 209.25 700.29 202.03 718.24 202.03 729.31 209.25" stroke="#0066FF" stroke-width="1" stroke-linecap="round" stroke-linejoin="round" stroke-dasharray="2 4" fill="none"/><path d="M422.33 474.63C433.4 481.85 433.4 493.55 422.33 500.77 411.26 507.99 393.31 507.99 382.24 500.77 371.17 493.55 371.17 481.85 382.24 474.63 393.31 467.41 411.26 467.41 422.33 474.63" stroke="#0066FF" stroke-width="1" stroke-linecap="round" stroke-linejoin="round" stroke-dasharray="2 4" fill="none"/><path d="M329.92 109.7 337.01 123.88 322.83 123.88Z" stroke="#0066FF" stroke-width="2" stroke-linecap="round" stroke-linejoin="round" fill="#FFFFFF" transform="matrix(-0.388481 -0.921457 0.921457 -0.388481 351.091 471.26)"/><path d="M493.75 34.26 500.83 48.43 486.66 48.43Z" stroke="#0066FF" stroke-width="2" stroke-linecap="round" stroke-linejoin="round" fill="#FFFFFF" transform="matrix(-0.287193 0.957873 -0.957873 -0.287193 674.508 -416.139)"/><path d="M508.13 41.92 515.22 56.1 501.05 56.1Z" stroke="#0066FF" stroke-width="2" stroke-linecap="round" stroke-linejoin="round" fill="#FFFFFF" transform="matrix(0.312501 -0.949918 0.949918 0.312501 299.921 515.9)"/><path d="M479.34 95.01 486.43 109.18 472.25 109.18Z" stroke="#0066FF" stroke-width="2" stroke-linecap="round" stroke-linejoin="round" fill="#FFFFFF" transform="matrix(-0.0347251 0.999397 -0.999397 -0.0347251 597.905 -373.031)"/><path d="M492.51 95.67 499.6 109.84 485.43 109.84Z" stroke="#0066FF" stroke-width="2" stroke-linecap="round" stroke-linejoin="round" fill="#FFFFFF" transform="matrix(0.00436331 -0.99999 0.99999 0.00436331 387.562 594.797)"/></svg>