<svg width="320" height="216" xmlns="http://www.w3.org/2000/svg" xmlns:xlink="http://www.w3.org/1999/xlink" overflow="hidden"><path d="M120.1 167.68 249.88 51.66" stroke="#000000" stroke-width="2" stroke-linecap="round" stroke-linejoin="round" fill="none"/><path d="M71.42 50.62 71.43 24.52M72.81 24.52 70.05 24.52 71.43 18.02Z" stroke="#000000" stroke-width="1" stroke-linecap="round" stroke-linejoin="round" fill="#000000"/><path d="M71.35 188.53 71.43 18.02" stroke="#000000" stroke-width="1" stroke-linecap="round" stroke-linejoin="round" stroke-dasharray="6 2 2 2" fill="none"/><path d="M182.61 109.94 71.43 109.94" stroke="#000000" stroke-width="1" stroke-linecap="round" stroke-linejoin="round" stroke-dasharray="6 2 2 2" fill="none"/><path d="M183.36 142.54 183.36 109.94M184.74 116.44 183.36 109.94 181.97 116.44" stroke="#000000" stroke-width="1" stroke-linecap="round" stroke-linejoin="round" fill="none"/><path d="M183.36 109.94 183.36 188.93" stroke="#000000" stroke-width="1" stroke-linecap="round" stroke-linejoin="round" stroke-dasharray="2 2" fill="none"/><path d="M249.78 51.9 71.43 51.66" stroke="#000000" stroke-width="1" stroke-linecap="round" stroke-linejoin="round" stroke-dasharray="2 4" fill="none"/><path d="M120.1 178.12 120.1 167.68M121.48 174.18 120.1 167.68 118.72 174.18" stroke="#000000" stroke-width="1" stroke-linecap="round" stroke-linejoin="round" fill="none"/><path d="M120.1 188.57 120.1 167.68" stroke="#000000" stroke-width="1" stroke-linecap="round" stroke-linejoin="round" stroke-dasharray="2 4" fill="none"/><text fill="#000000" font-family="Helvetica" font-size="10" opacity="1" x="67.22" y="13.31">af</text><text fill="#000000" font-family="Helvetica" font-size="10" opacity="1" x="6.56" y="52.29">CV</text><text fill="#000000" font-family="Helvetica" font-size="8" opacity="1" x="19.58" y="54.44">max</text><path d="M120.1 167.68 87.73 167.68" stroke="#000000" stroke-width="2" stroke-linecap="round" stroke-linejoin="round" fill="none"/><text fill="#000000" font-family="Helvetica" font-size="10" opacity="1" x="38.86" y="52.29">- CV</text><text fill="#000000" font-family="Helvetica" font-size="8" opacity="1" x="59.05" y="54.44">sp</text><text fill="#000000" font-family="Helvetica" font-size="10" opacity="1" x="6.2" y="168.43">CV</text><text fill="#000000" font-family="Helvetica" font-size="8" opacity="1" x="19.46" y="170.57">min</text><text fill="#000000" font-family="Helvetica" font-size="10" opacity="1" x="36.51" y="168.43">- CV</text><text fill="#000000" font-family="Helvetica" font-size="8" opacity="1" x="56.71" y="170.57">sp</text><text fill="#000000" font-family="Helvetica" font-size="10" opacity="1" x="60.3" y="113.87">0</text><path d="M249.93 84.5 249.78 51.9M251.19 58.39 249.78 51.9 248.43 58.41" stroke="#000000" stroke-width="1" stroke-linecap="round" stroke-linejoin="round" fill="none"/><path d="M249.78 51.9 250.43 185.96" stroke="#000000" stroke-width="1" stroke-linecap="round" stroke-linejoin="round" stroke-dasharray="2 2" fill="none"/><text fill="#000000" font-family="Helvetica" font-size="10" opacity="1" x="109.18" y="198.13">CV</text><text fill="#000000" font-family="Helvetica" font-size="8" opacity="1" x="122.45" y="200.28">min</text><text fill="#000000" font-family="Helvetica" font-size="10" opacity="1" x="236.53" y="197.85">CV</text><text fill="#000000" font-family="Helvetica" font-size="8" opacity="1" x="250.55" y="199.99">max</text><text fill="#000000" font-family="Helvetica" font-size="10" opacity="1" x="175.29" y="198.06">CV</text><text fill="#000000" font-family="Helvetica" font-size="8" opacity="1" x="189.42" y="200.68">sp</text><path d="M211.1 86.51 224.7 86.51" stroke="#000000" stroke-width="1" stroke-linecap="round" stroke-linejoin="round" fill="none"/><text fill="#000000" font-family="Helvetica" font-size="10" opacity="1" x="229.24" y="83.72">1</text><path d="M224.7 85.83 224.7 75.41" stroke="#000000" stroke-width="1" stroke-linecap="round" stroke-linejoin="round" fill="none"/><path d="M282.48 51.9 249.88 51.9" stroke="#000000" stroke-width="2" stroke-linecap="round" stroke-linejoin="round" fill="none"/><path d="M71.43 167.68 87.73 167.68" stroke="#000000" stroke-width="1" stroke-linecap="round" stroke-linejoin="round" stroke-dasharray="2 4" fill="none"/><path d="M249.78 109.94 183.36 109.94" stroke="#000000" stroke-width="1" stroke-linecap="round" stroke-linejoin="round" stroke-dasharray="6 2 2 2" fill="none"/><path d="M266.45 109.94 282.48 109.94M275.98 111.33 282.48 109.94 275.98 108.56" stroke="#000000" stroke-width="1" stroke-linecap="round" stroke-linejoin="round" fill="none"/><path d="M282.48 109.94 250.43 109.94" stroke="#000000" stroke-width="1" stroke-linecap="round" stroke-linejoin="round" stroke-dasharray="6 2 2 2" fill="none"/><text fill="#000000" font-family="Helvetica" font-size="10" opacity="1" x="287.55" y="112.75">cv</text></svg>